<mxfile host="app.diagrams.net" agent="Mozilla/5.0 (Windows NT 10.0; Win64; x64) AppleWebKit/537.36 (KHTML, like Gecko) Chrome/136.0.0.0 Safari/537.36" version="27.0.3">
  <diagram name="Pagina-1" id="kpaGEh9nXqvZMZwJ1vCg">
    <mxGraphModel dx="1426" dy="751" grid="1" gridSize="10" guides="1" tooltips="1" connect="1" arrows="1" fold="1" page="1" pageScale="1" pageWidth="827" pageHeight="1169" background="light-dark(#FFFFFF,#F9F9F9)" math="0" shadow="0">
      <root>
        <mxCell id="0" />
        <mxCell id="1" parent="0" />
        <mxCell id="OoIWjtk9Z4yZWAxyzODX-1" value="&lt;font style=&quot;color: light-dark(rgb(0, 0, 0), rgb(0, 0, 0)); font-size: 14px;&quot;&gt;Chari&lt;/font&gt;" style="shape=umlActor;verticalLabelPosition=bottom;verticalAlign=top;html=1;outlineConnect=0;strokeColor=light-dark(#000000,#000000);fillColor=light-dark(#FFFFC6,#FDF89C);" vertex="1" parent="1">
          <mxGeometry x="290" y="350" width="30" height="60" as="geometry" />
        </mxCell>
        <mxCell id="OoIWjtk9Z4yZWAxyzODX-16" value="&lt;font style=&quot;color: light-dark(rgb(0, 0, 0), rgb(0, 0, 0)); font-size: 14px;&quot;&gt;Tempo&lt;/font&gt;" style="shape=umlActor;verticalLabelPosition=bottom;verticalAlign=top;html=1;outlineConnect=0;strokeColor=light-dark(#000000,#000000);fillColor=light-dark(#FFFFC6,#FDF89C);" vertex="1" parent="1">
          <mxGeometry x="850" y="350" width="30" height="60" as="geometry" />
        </mxCell>
        <mxCell id="OoIWjtk9Z4yZWAxyzODX-3" value="&lt;font style=&quot;color: light-dark(rgb(0, 0, 0), rgb(9, 9, 9));&quot; face=&quot;Courier New&quot;&gt;&lt;span style=&quot;font-size: 14px;&quot;&gt;&lt;b style=&quot;&quot;&gt;Reminder&lt;/b&gt;&lt;/span&gt;&lt;/font&gt;&lt;div&gt;&lt;font style=&quot;color: light-dark(rgb(0, 0, 0), rgb(9, 9, 9));&quot; face=&quot;Courier New&quot;&gt;&lt;span style=&quot;font-size: 14px;&quot;&gt;&lt;b style=&quot;&quot;&gt;Revisore&lt;/b&gt;&lt;/span&gt;&lt;/font&gt;&lt;/div&gt;" style="ellipse;whiteSpace=wrap;html=1;fillColor=light-dark(#FFFFC6,#FDF89C);strokeColor=light-dark(#000000,#000000);gradientColor=none;" vertex="1" parent="1">
          <mxGeometry x="492.5" y="160" width="165" height="60" as="geometry" />
        </mxCell>
        <mxCell id="OoIWjtk9Z4yZWAxyzODX-4" value="&lt;font style=&quot;color: light-dark(rgb(0, 0, 0), rgb(9, 9, 9));&quot; face=&quot;Courier New&quot;&gt;&lt;span style=&quot;font-size: 14px;&quot;&gt;&lt;b style=&quot;&quot;&gt;Reminder&lt;/b&gt;&lt;/span&gt;&lt;/font&gt;&lt;div&gt;&lt;font style=&quot;color: light-dark(rgb(0, 0, 0), rgb(9, 9, 9));&quot; face=&quot;Courier New&quot;&gt;&lt;span style=&quot;font-size: 14px;&quot;&gt;&lt;b style=&quot;&quot;&gt;Autore&lt;/b&gt;&lt;/span&gt;&lt;/font&gt;&lt;/div&gt;" style="ellipse;whiteSpace=wrap;html=1;fillColor=light-dark(#FFFFC6,#FDF89C);strokeColor=light-dark(#000000,#000000);" vertex="1" parent="1">
          <mxGeometry x="492.5" y="70" width="165" height="60" as="geometry" />
        </mxCell>
        <mxCell id="OoIWjtk9Z4yZWAxyzODX-5" value="&lt;font style=&quot;color: light-dark(rgb(0, 0, 0), rgb(9, 9, 9));&quot; face=&quot;Courier New&quot;&gt;&lt;span style=&quot;font-size: 14px;&quot;&gt;&lt;b style=&quot;&quot;&gt;Notifica fine Sottomissione&lt;/b&gt;&lt;/span&gt;&lt;/font&gt;" style="ellipse;whiteSpace=wrap;html=1;fillColor=light-dark(#FFFFC6,#FDF89C);strokeColor=light-dark(#000000,#000000);" vertex="1" parent="1">
          <mxGeometry x="492.5" y="250" width="165" height="60" as="geometry" />
        </mxCell>
        <mxCell id="OoIWjtk9Z4yZWAxyzODX-7" value="&lt;span style=&quot;font-size:12.0pt;mso-bidi-font-size:11.0pt;&lt;br/&gt;line-height:107%;font-family:&amp;quot;Times New Roman&amp;quot;,serif;mso-fareast-font-family:&lt;br/&gt;Aptos;mso-fareast-theme-font:minor-latin;mso-bidi-font-family:Arial;mso-bidi-theme-font:&lt;br/&gt;minor-bidi;mso-ansi-language:IT;mso-fareast-language:EN-US;mso-bidi-language:&lt;br/&gt;AR-SA&quot;&gt;&lt;font style=&quot;color: light-dark(rgb(0, 0, 0), rgb(9, 9, 9));&quot;&gt;Notifica fine&amp;nbsp;&lt;/font&gt;&lt;/span&gt;&lt;div&gt;&lt;span style=&quot;font-size:12.0pt;mso-bidi-font-size:11.0pt;&lt;br/&gt;line-height:107%;font-family:&amp;quot;Times New Roman&amp;quot;,serif;mso-fareast-font-family:&lt;br/&gt;Aptos;mso-fareast-theme-font:minor-latin;mso-bidi-font-family:Arial;mso-bidi-theme-font:&lt;br/&gt;minor-bidi;mso-ansi-language:IT;mso-fareast-language:EN-US;mso-bidi-language:&lt;br/&gt;AR-SA&quot;&gt;&lt;font style=&quot;color: light-dark(rgb(0, 0, 0), rgb(9, 9, 9));&quot;&gt;Revisione&lt;/font&gt;&lt;/span&gt;&lt;/div&gt;" style="ellipse;whiteSpace=wrap;html=1;fillColor=light-dark(#FFFFC6,#FDF89C);strokeColor=light-dark(#000000,#000000);" vertex="1" parent="1">
          <mxGeometry x="492.5" y="340" width="165" height="60" as="geometry" />
        </mxCell>
        <mxCell id="OoIWjtk9Z4yZWAxyzODX-6" value="&lt;span style=&quot;font-size:12.0pt;mso-bidi-font-size:11.0pt;&lt;br/&gt;line-height:107%;font-family:&amp;quot;Times New Roman&amp;quot;,serif;mso-fareast-font-family:&lt;br/&gt;Aptos;mso-fareast-theme-font:minor-latin;mso-bidi-font-family:Arial;mso-bidi-theme-font:&lt;br/&gt;minor-bidi;mso-ansi-language:IT;mso-fareast-language:EN-US;mso-bidi-language:&lt;br/&gt;AR-SA&quot;&gt;&lt;font style=&quot;color: light-dark(rgb(0, 0, 0), rgb(9, 9, 9));&quot;&gt;Scelta modalitÃ  Distribuzione&lt;/font&gt;&lt;/span&gt;" style="ellipse;whiteSpace=wrap;html=1;fillColor=light-dark(#FFFFC6,#FDF89C);strokeColor=light-dark(#000000,#000000);" vertex="1" parent="1">
          <mxGeometry x="492.5" y="430" width="165" height="60" as="geometry" />
        </mxCell>
        <mxCell id="OoIWjtk9Z4yZWAxyzODX-17" value="&lt;span style=&quot;font-size:12.0pt;mso-bidi-font-size:11.0pt;&lt;br/&gt;line-height:107%;font-family:&amp;quot;Times New Roman&amp;quot;,serif;mso-fareast-font-family:&lt;br/&gt;Aptos;mso-fareast-theme-font:minor-latin;mso-bidi-font-family:Arial;mso-bidi-theme-font:&lt;br/&gt;minor-bidi;mso-ansi-language:IT;mso-fareast-language:EN-US;mso-bidi-language:&lt;br/&gt;AR-SA&quot;&gt;&lt;font style=&quot;color: light-dark(rgb(0, 0, 0), rgb(9, 9, 9));&quot;&gt;Distribuzione Automatica&lt;/font&gt;&lt;/span&gt;" style="ellipse;whiteSpace=wrap;html=1;fillColor=light-dark(#FFFFC6,#FDF89C);strokeColor=light-dark(#000000,#000000);" vertex="1" parent="1">
          <mxGeometry x="492.5" y="525" width="165" height="60" as="geometry" />
        </mxCell>
        <mxCell id="OoIWjtk9Z4yZWAxyzODX-8" value="&lt;span style=&quot;font-size:12.0pt;mso-bidi-font-size:11.0pt;&lt;br/&gt;line-height:107%;font-family:&amp;quot;Times New Roman&amp;quot;,serif;mso-fareast-font-family:&lt;br/&gt;Aptos;mso-fareast-theme-font:minor-latin;mso-bidi-font-family:Arial;mso-bidi-theme-font:&lt;br/&gt;minor-bidi;mso-ansi-language:IT;mso-fareast-language:EN-US;mso-bidi-language:&lt;br/&gt;AR-SA&quot;&gt;&lt;font style=&quot;color: light-dark(rgb(0, 0, 0), rgb(9, 9, 9));&quot;&gt;Invio risultati&lt;/font&gt;&lt;/span&gt;" style="ellipse;whiteSpace=wrap;html=1;fillColor=light-dark(#FFFFC6,#FDF89C);strokeColor=light-dark(#000000,#000000);" vertex="1" parent="1">
          <mxGeometry x="492.5" y="620" width="165" height="60" as="geometry" />
        </mxCell>
        <mxCell id="OoIWjtk9Z4yZWAxyzODX-18" value="uc" style="shape=umlFrame;whiteSpace=wrap;html=1;pointerEvents=0;strokeColor=light-dark(#000000,#000000);width=76;height=28;" vertex="1" parent="1">
          <mxGeometry x="210" y="60" width="730" height="640" as="geometry" />
        </mxCell>
        <mxCell id="OoIWjtk9Z4yZWAxyzODX-20" value="" style="endArrow=none;html=1;rounded=0;strokeColor=light-dark(#000000,#000000);endFill=0;strokeWidth=1;startSize=6;jumpSize=6;targetPerimeterSpacing=0;endSize=6;entryX=0;entryY=0.5;entryDx=0;entryDy=0;startFill=0;" edge="1" parent="1" target="OoIWjtk9Z4yZWAxyzODX-4">
          <mxGeometry width="50" height="50" relative="1" as="geometry">
            <mxPoint x="330" y="370" as="sourcePoint" />
            <mxPoint x="400" y="443" as="targetPoint" />
            <Array as="points" />
          </mxGeometry>
        </mxCell>
        <mxCell id="OoIWjtk9Z4yZWAxyzODX-21" value="" style="endArrow=none;html=1;rounded=0;strokeColor=light-dark(#000000,#000000);endFill=0;strokeWidth=1;startSize=6;jumpSize=6;targetPerimeterSpacing=0;endSize=6;entryX=0;entryY=0.5;entryDx=0;entryDy=0;startFill=0;" edge="1" parent="1" target="OoIWjtk9Z4yZWAxyzODX-3">
          <mxGeometry width="50" height="50" relative="1" as="geometry">
            <mxPoint x="330" y="370" as="sourcePoint" />
            <mxPoint x="503" y="110" as="targetPoint" />
            <Array as="points" />
          </mxGeometry>
        </mxCell>
        <mxCell id="OoIWjtk9Z4yZWAxyzODX-22" value="" style="endArrow=none;html=1;rounded=0;strokeColor=light-dark(#000000,#000000);endFill=0;strokeWidth=1;startSize=6;jumpSize=6;targetPerimeterSpacing=0;endSize=6;entryX=0.021;entryY=0.617;entryDx=0;entryDy=0;startFill=0;entryPerimeter=0;" edge="1" parent="1" target="OoIWjtk9Z4yZWAxyzODX-5">
          <mxGeometry width="50" height="50" relative="1" as="geometry">
            <mxPoint x="330" y="370" as="sourcePoint" />
            <mxPoint x="503" y="200" as="targetPoint" />
            <Array as="points" />
          </mxGeometry>
        </mxCell>
        <mxCell id="OoIWjtk9Z4yZWAxyzODX-23" value="" style="endArrow=none;html=1;rounded=0;strokeColor=light-dark(#000000,#000000);endFill=0;strokeWidth=1;startSize=6;jumpSize=6;targetPerimeterSpacing=0;endSize=6;entryX=0;entryY=0.5;entryDx=0;entryDy=0;startFill=0;" edge="1" parent="1" target="OoIWjtk9Z4yZWAxyzODX-7">
          <mxGeometry width="50" height="50" relative="1" as="geometry">
            <mxPoint x="330" y="370" as="sourcePoint" />
            <mxPoint x="506" y="297" as="targetPoint" />
            <Array as="points" />
          </mxGeometry>
        </mxCell>
        <mxCell id="OoIWjtk9Z4yZWAxyzODX-24" value="" style="endArrow=none;html=1;rounded=0;strokeColor=light-dark(#000000,#000000);endFill=0;strokeWidth=1;startSize=6;jumpSize=6;targetPerimeterSpacing=0;endSize=6;entryX=0;entryY=0.5;entryDx=0;entryDy=0;startFill=0;" edge="1" parent="1" target="OoIWjtk9Z4yZWAxyzODX-6">
          <mxGeometry width="50" height="50" relative="1" as="geometry">
            <mxPoint x="330" y="370" as="sourcePoint" />
            <mxPoint x="503" y="380" as="targetPoint" />
            <Array as="points" />
          </mxGeometry>
        </mxCell>
        <mxCell id="OoIWjtk9Z4yZWAxyzODX-25" value="" style="endArrow=none;html=1;rounded=0;strokeColor=light-dark(#000000,#000000);endFill=0;strokeWidth=1;startSize=6;jumpSize=6;targetPerimeterSpacing=0;endSize=6;entryX=0;entryY=0.5;entryDx=0;entryDy=0;startFill=0;" edge="1" parent="1">
          <mxGeometry width="50" height="50" relative="1" as="geometry">
            <mxPoint x="330" y="370" as="sourcePoint" />
            <mxPoint x="492.5" y="555" as="targetPoint" />
            <Array as="points" />
          </mxGeometry>
        </mxCell>
        <mxCell id="OoIWjtk9Z4yZWAxyzODX-26" value="" style="endArrow=none;html=1;rounded=0;strokeColor=light-dark(#000000,#000000);endFill=0;strokeWidth=1;startSize=6;jumpSize=6;targetPerimeterSpacing=0;endSize=6;entryX=0;entryY=0.5;entryDx=0;entryDy=0;startFill=0;" edge="1" parent="1" target="OoIWjtk9Z4yZWAxyzODX-8">
          <mxGeometry width="50" height="50" relative="1" as="geometry">
            <mxPoint x="330" y="370" as="sourcePoint" />
            <mxPoint x="503" y="565" as="targetPoint" />
            <Array as="points" />
          </mxGeometry>
        </mxCell>
        <mxCell id="OoIWjtk9Z4yZWAxyzODX-27" value="" style="endArrow=none;html=1;rounded=0;strokeColor=light-dark(#000000,#000000);endFill=0;strokeWidth=1;startSize=6;jumpSize=6;targetPerimeterSpacing=0;endSize=6;entryX=1;entryY=0.5;entryDx=0;entryDy=0;startFill=0;" edge="1" parent="1" target="OoIWjtk9Z4yZWAxyzODX-4">
          <mxGeometry width="50" height="50" relative="1" as="geometry">
            <mxPoint x="840" y="370" as="sourcePoint" />
            <mxPoint x="503" y="110" as="targetPoint" />
            <Array as="points" />
          </mxGeometry>
        </mxCell>
        <mxCell id="OoIWjtk9Z4yZWAxyzODX-28" value="" style="endArrow=none;html=1;rounded=0;strokeColor=light-dark(#000000,#000000);endFill=0;strokeWidth=1;startSize=6;jumpSize=6;targetPerimeterSpacing=0;endSize=6;entryX=1;entryY=0.5;entryDx=0;entryDy=0;startFill=0;" edge="1" parent="1" target="OoIWjtk9Z4yZWAxyzODX-3">
          <mxGeometry width="50" height="50" relative="1" as="geometry">
            <mxPoint x="840" y="370" as="sourcePoint" />
            <mxPoint x="668" y="110" as="targetPoint" />
            <Array as="points" />
          </mxGeometry>
        </mxCell>
        <mxCell id="OoIWjtk9Z4yZWAxyzODX-29" value="" style="endArrow=none;html=1;rounded=0;strokeColor=light-dark(#000000,#000000);endFill=0;strokeWidth=1;startSize=6;jumpSize=6;targetPerimeterSpacing=0;endSize=6;entryX=1;entryY=0.5;entryDx=0;entryDy=0;startFill=0;" edge="1" parent="1" target="OoIWjtk9Z4yZWAxyzODX-5">
          <mxGeometry width="50" height="50" relative="1" as="geometry">
            <mxPoint x="840" y="370" as="sourcePoint" />
            <mxPoint x="668" y="200" as="targetPoint" />
            <Array as="points" />
          </mxGeometry>
        </mxCell>
        <mxCell id="OoIWjtk9Z4yZWAxyzODX-30" value="" style="endArrow=none;html=1;rounded=0;strokeColor=light-dark(#000000,#000000);endFill=0;strokeWidth=1;startSize=6;jumpSize=6;targetPerimeterSpacing=0;endSize=6;entryX=1;entryY=0.5;entryDx=0;entryDy=0;startFill=0;" edge="1" parent="1" target="OoIWjtk9Z4yZWAxyzODX-7">
          <mxGeometry width="50" height="50" relative="1" as="geometry">
            <mxPoint x="840" y="370" as="sourcePoint" />
            <mxPoint x="668" y="290" as="targetPoint" />
            <Array as="points" />
          </mxGeometry>
        </mxCell>
        <mxCell id="OoIWjtk9Z4yZWAxyzODX-31" value="" style="endArrow=none;html=1;rounded=0;strokeColor=light-dark(#000000,#000000);endFill=0;strokeWidth=1;startSize=6;jumpSize=6;targetPerimeterSpacing=0;endSize=6;entryX=1;entryY=0.5;entryDx=0;entryDy=0;startFill=0;" edge="1" parent="1" target="OoIWjtk9Z4yZWAxyzODX-6">
          <mxGeometry width="50" height="50" relative="1" as="geometry">
            <mxPoint x="840" y="370" as="sourcePoint" />
            <mxPoint x="668" y="380" as="targetPoint" />
            <Array as="points" />
          </mxGeometry>
        </mxCell>
        <mxCell id="OoIWjtk9Z4yZWAxyzODX-32" value="" style="endArrow=none;html=1;rounded=0;strokeColor=light-dark(#000000,#000000);endFill=0;strokeWidth=1;startSize=6;jumpSize=6;targetPerimeterSpacing=0;endSize=6;entryX=1;entryY=0.5;entryDx=0;entryDy=0;startFill=0;" edge="1" parent="1" target="OoIWjtk9Z4yZWAxyzODX-17">
          <mxGeometry width="50" height="50" relative="1" as="geometry">
            <mxPoint x="840" y="370" as="sourcePoint" />
            <mxPoint x="668" y="470" as="targetPoint" />
            <Array as="points" />
          </mxGeometry>
        </mxCell>
        <mxCell id="OoIWjtk9Z4yZWAxyzODX-33" value="" style="endArrow=none;html=1;rounded=0;strokeColor=light-dark(#000000,#000000);endFill=0;strokeWidth=1;startSize=6;jumpSize=6;targetPerimeterSpacing=0;endSize=6;entryX=1;entryY=0.5;entryDx=0;entryDy=0;startFill=0;" edge="1" parent="1" target="OoIWjtk9Z4yZWAxyzODX-8">
          <mxGeometry width="50" height="50" relative="1" as="geometry">
            <mxPoint x="840" y="370" as="sourcePoint" />
            <mxPoint x="668" y="565" as="targetPoint" />
            <Array as="points" />
          </mxGeometry>
        </mxCell>
      </root>
    </mxGraphModel>
  </diagram>
</mxfile>
